<svg fill="none" xmlns="http://www.w3.org/2000/svg" viewBox="0 0 15 15">
  <path d="M7.5 0A7.499 7.499 0 0 0 0 7.5C0 11.643 3.357 15 7.5 15S15 11.643 15 7.5 11.643 0 7.5 0Zm3.478 5.102c-.112 1.185-.602 4.064-.85 5.392-.106.563-.311.75-.511.768-.436.04-.765-.287-1.189-.565-.659-.433-1.034-.702-1.672-1.125-.74-.487-.26-.756.16-1.195.112-.115 2.03-1.86 2.066-2.017.006-.021.009-.094-.036-.133-.046-.04-.11-.024-.155-.015-.066.015-1.122.71-3.163 2.09-.3.205-.572.305-.813.299-.27-.006-.784-.151-1.168-.275-.469-.152-.844-.233-.81-.493.018-.136.202-.273.556-.415a347.681 347.681 0 0 1 4.373-1.884c2.084-.865 2.516-1.016 2.797-1.022.064 0 .2.015.29.088a.31.31 0 0 1 .107.202c.015.097.018.197.012.297l.006.003Z" fill="currentColor"/>
</svg>
