<svg fill="none" xmlns="http://www.w3.org/2000/svg" viewBox="0 0 15 15">
  <path d="M1.055 1.055C0 2.109 0 3.807 0 7.199V7.8c0 3.392 0 5.09 1.055 6.144C2.109 15 3.807 15 7.199 15h.599c3.395 0 5.093 0 6.144-1.055C14.993 12.891 15 11.193 15 7.801v-.599c0-3.395 0-5.093-1.055-6.144C12.891.007 11.193 0 7.801 0H7.2c-3.392 0-5.09 0-6.144 1.055ZM2.53 4.564h1.711c.057 2.862 1.32 4.074 2.32 4.326V4.564h1.614V7.03c.988-.107 2.026-1.232 2.374-2.467h1.614a4.722 4.722 0 0 1-.773 1.784 4.72 4.72 0 0 1-1.423 1.326 4.936 4.936 0 0 1 2.568 3.13H10.76a3.084 3.084 0 0 0-2.588-2.23v2.23h-.194c-3.419 0-5.367-2.343-5.451-6.244l.003.004Z" fill="currentColor"/>
</svg>
