<svg fill="none" xmlns="http://www.w3.org/2000/svg" viewBox="0 0 20 18">
  <path d="M4.976 2.571c-.486 0-.92.37-1.063.908L2.444 9h5.334c.614 0 1.11.575 1.11 1.286h2.223c0-.711.497-1.286 1.111-1.286h5.334l-1.47-5.52c-.142-.539-.572-.909-1.062-.909H13.89c-.615 0-1.111-.574-1.111-1.285S13.274 0 13.888 0h1.136c1.462 0 2.757 1.105 3.188 2.724l1.576 5.926c.143.53.212 1.081.212 1.636v3.857C20 16.273 18.507 18 16.667 18h-2.223c-1.84 0-3.333-1.728-3.333-3.857v-1.286H8.89v1.286c0 2.13-1.493 3.857-3.333 3.857H3.333C1.493 18 0 16.272 0 14.143v-3.857C0 9.73.073 9.18.212 8.65l1.576-5.926C2.218 1.104 3.51 0 4.976 0H6.11c.615 0 1.111.575 1.111 1.286 0 .71-.496 1.285-1.11 1.285H4.975Zm-2.754 9v2.572c0 .711.497 1.286 1.111 1.286h2.223c.614 0 1.11-.575 1.11-1.286V11.57H2.223Zm14.445 3.858c.614 0 1.11-.575 1.11-1.286V11.57h-4.444v2.572c0 .711.497 1.286 1.111 1.286h2.223Z" fill="#BDBDBD"/>
</svg>
