<svg fill="none" xmlns="http://www.w3.org/2000/svg" viewBox="0 0 17 15">
  <path d="M12.08 2.046H1V14h3.084v-3.89h5.908L12.688 14h3.453l-2.972-3.907c.923-.143 1.588-.484 1.994-1.022.406-.537.61-1.398.61-2.545V5.63c0-.68-.075-1.218-.204-1.63a2.71 2.71 0 0 0-.665-1.094 3.026 3.026 0 0 0-1.145-.663c-.443-.125-.997-.197-1.68-.197Zm-.5 5.43H4.085V4.68h7.497c.424 0 .72.072.867.198.148.125.24.358.24.699V6.58c0 .359-.092.591-.24.717-.147.125-.443.18-.867.18v0Z" stroke="currentColor" stroke-width=".982" stroke-linecap="round" stroke-linejoin="round"/>
  <path d="M15.521 2.046a1.023 1.023 0 1 0 0-2.046 1.023 1.023 0 0 0 0 2.046Z" fill="currentColor"/>
</svg>
