<svg fill="none" xmlns="http://www.w3.org/2000/svg" viewBox="0 0 12 12">
  <path d="M8.142 2.848H1.374v7.302h1.884V7.775h3.61l1.647 2.375h2.109L8.808 7.764c.564-.088.97-.296 1.218-.624.248-.329.372-.854.372-1.555v-.548c0-.416-.045-.744-.124-.996a1.655 1.655 0 0 0-.406-.668 1.848 1.848 0 0 0-.7-.405c-.27-.076-.608-.12-1.026-.12Zm-.304 3.317h-4.58V4.457h4.58c.26 0 .44.044.53.12.09.077.147.22.147.428v.613c0 .219-.057.36-.147.438-.09.076-.27.109-.53.109v0Z" stroke="currentColor" stroke-width=".75" stroke-linecap="round" stroke-linejoin="round"/>
  <path d="M10.245 2.723a.625.625 0 1 0 0-1.25.625.625 0 0 0 0 1.25Z" fill="#38D430"/>
</svg>
