<svg fill="none" xmlns="http://www.w3.org/2000/svg" viewBox="0 0 12 12">
  <path d="M.844.844C0 1.688 0 3.046 0 5.759v.482c0 2.713 0 4.072.844 4.915C1.688 12 3.046 12 5.759 12h.48c2.715 0 4.074 0 4.915-.844.84-.844.846-2.202.846-4.915v-.48c0-2.715 0-4.074-.844-4.915C10.312.006 8.954 0 6.241 0H5.76C3.046 0 1.687 0 .844.844ZM2.025 3.65h1.369c.045 2.29 1.055 3.26 1.856 3.46v-3.46h1.291v1.974c.79-.086 1.62-.986 1.9-1.974h1.29c-.104.514-.316.999-.618 1.428-.303.428-.689.79-1.139 1.06a3.949 3.949 0 0 1 2.055 2.505h-1.42a2.467 2.467 0 0 0-2.07-1.784v1.784h-.156c-2.735 0-4.294-1.875-4.36-4.996l.002.003Z" fill="currentColor"/>
</svg>
