<svg fill="none" xmlns="http://www.w3.org/2000/svg" viewBox="0 0 11 11">
  <g clip-path="url(#a)">
    <path d="M10.317 5.277h.002a.22.22 0 0 0 .22-.24A5.052 5.052 0 0 0 5.963.462a.22.22 0 0 0-.24.222c.038 3.228.464 4.547 4.593 4.593Zm0 .446c-4.129.045-4.554 1.364-4.593 4.593a.22.22 0 0 0 .24.222 5.051 5.051 0 0 0 4.574-4.575.22.22 0 0 0-.221-.24ZM5.02.463A5.054 5.054 0 0 0 .462 5.037a.22.22 0 0 0 .22.24h.002C4.798 5.229 5.224 3.91 5.262.684a.22.22 0 0 0-.24-.221ZM.684 5.723c-.069-.008-.123.024-.165.07a.22.22 0 0 0-.057.17 5.054 5.054 0 0 0 4.58 4.574.22.22 0 0 0 .22-.222C5.223 7.088 4.798 5.77.684 5.723Z" fill="currentColor"/>
  </g>
  <defs>
    <clipPath id="a">
      <path fill="#fff" d="M0 0h11v11H0z"/>
    </clipPath>
  </defs>
</svg>
