<svg fill="none" xmlns="http://www.w3.org/2000/svg" viewBox="0 0 12 12">
  <path d="M6 0C2.685 0 0 2.685 0 6s2.685 6 6 6 6-2.685 6-6-2.685-6-6-6Zm2.782 4.081c-.09.949-.481 3.252-.68 4.314-.084.45-.249.6-.408.615-.349.031-.613-.23-.951-.453-.528-.346-.828-.561-1.338-.9-.593-.39-.208-.605.128-.955.09-.092 1.623-1.488 1.652-1.614.005-.017.008-.075-.029-.107-.036-.031-.087-.019-.123-.012-.053.012-.898.569-2.53 1.672-.24.165-.458.244-.651.24-.216-.005-.627-.121-.934-.22-.375-.121-.675-.187-.649-.395.015-.109.162-.218.446-.331 1.749-.762 2.915-1.266 3.498-1.508 1.667-.692 2.013-.812 2.238-.817.05 0 .16.012.232.07.048.041.077.099.085.162.012.077.014.157.01.237l.004.002Z" fill="currentColor"/>
</svg>
